<svg version="1.1" id="Layer_1" xmlns="http://www.w3.org/2000/svg" xmlns:xlink="http://www.w3.org/1999/xlink" x="0px" y="0px"
	 width="100%" viewBox="0 0 720 1024" enable-background="new 0 0 720 1024" xml:space="preserve">
<path fill="#000000" opacity="1.000000" stroke="none" 
	d="
M303.206940,458.593475 
	C304.161621,449.985657 304.033447,441.679871 303.565369,432.604889 
	C314.511566,432.288055 321.730316,439.707825 330.672211,444.425690 
	C333.424866,435.414459 340.394257,430.211761 346.803192,424.415009 
	C352.049438,419.669952 355.669800,413.649750 358.047058,406.919067 
	C358.623657,405.286652 358.842987,403.027649 361.230591,402.938324 
	C363.621338,402.848907 364.073853,405.019562 364.637634,406.669312 
	C367.933289,416.313263 373.971222,423.880096 382.091492,429.845825 
	C386.973145,433.432190 389.288696,438.865051 392.500092,444.168610 
	C397.752838,440.958038 402.556580,437.379639 408.011963,434.970123 
	C409.686737,434.230408 411.368683,433.467712 413.114410,432.935547 
	C417.844574,431.493469 419.780792,432.692841 419.964294,437.630859 
	C420.143341,442.449310 419.911255,447.292053 419.659027,452.113647 
	C419.535553,454.474182 419.356049,456.743927 420.970215,459.121277 
	C426.348969,457.723053 431.767212,456.206543 437.245514,454.952179 
	C439.034271,454.542572 441.321503,453.447052 442.637329,455.847076 
	C443.831299,458.024872 443.000336,459.956604 441.493927,461.785614 
	C438.829590,465.020386 436.372437,468.397491 436.573151,473.093109 
	C437.804291,473.703461 438.773956,472.443359 439.848969,471.934509 
	C450.579224,466.855530 461.941772,465.965790 473.553955,466.794495 
	C475.682678,466.946381 478.001160,467.135620 478.675049,469.866425 
	C479.417725,472.875854 476.978424,473.471039 475.128387,474.447327 
	C467.572601,478.434662 461.650177,483.752167 457.973175,491.833038 
	C454.319702,499.862244 448.686462,506.743042 441.915253,513.518311 
	C450.065552,514.916077 457.828766,515.715454 465.040833,518.719421 
	C467.292816,519.657471 470.084778,520.037659 470.381378,523.233337 
	C470.682678,526.479797 467.885681,527.251282 465.862427,528.520020 
	C460.239685,532.045776 454.010010,534.368042 447.367523,537.106079 
	C451.317047,542.572754 455.638580,547.256287 457.157013,553.984802 
	C451.191528,554.809082 445.654144,552.932434 440.071625,553.894714 
	C436.794983,554.459534 433.561340,554.861816 430.372711,555.966431 
	C418.768738,559.986389 407.431580,558.660217 396.318939,553.874207 
	C394.689911,553.172607 393.310455,551.716980 391.312103,551.971558 
	C389.754181,553.125732 389.978088,554.982910 389.431335,556.496643 
	C387.603821,561.556824 384.672089,565.544250 379.607330,567.862305 
	C373.695496,570.568054 368.986816,574.634705 366.141235,580.649048 
	C365.465576,582.077148 365.065704,584.027466 362.824402,583.809814 
	C360.755798,583.608887 359.690277,582.175415 358.902008,580.398438 
	C356.155670,574.207520 351.784180,569.526184 345.543915,566.838928 
	C339.250885,564.128967 335.978638,558.894104 333.658630,552.176941 
	C323.566589,558.542114 313.163147,559.345154 302.388611,557.170349 
	C300.278900,556.744507 298.222382,556.028442 296.166443,555.367920 
	C290.874207,553.667603 285.567291,552.814819 279.940186,553.637451 
	C275.558350,554.278137 271.031677,554.629395 266.233643,552.583130 
	C267.716827,545.623108 272.526672,540.992188 277.168121,535.827881 
	C268.160553,532.286499 259.586823,528.841736 251.919266,521.825134 
	C261.680389,515.295715 272.190491,514.481567 283.256378,513.441833 
	C279.618927,508.983978 276.232208,505.155151 273.224396,501.048767 
	C270.673126,497.565704 268.075409,493.974854 266.352783,490.056061 
	C262.743073,481.844513 256.785675,476.188873 249.021988,472.116730 
	C247.883484,471.519562 246.548172,471.013214 245.944305,468.794586 
	C252.513062,465.294342 259.583649,466.635162 266.439392,467.156067 
	C273.610809,467.701019 280.105865,470.913940 287.195129,473.800110 
	C288.513306,465.897919 283.492889,461.097778 279.448090,455.620300 
	C284.134033,453.659760 287.813049,455.749878 291.599304,456.335846 
	C295.463898,456.933990 298.791412,459.880432 303.206940,458.593475 
M348.163910,524.409546 
	C357.980438,530.045959 367.722656,529.187439 377.009796,523.431335 
	C385.521851,518.155640 389.419006,510.144165 388.579224,500.120392 
	C387.819092,491.047760 385.364166,482.443237 380.369995,474.711945 
	C374.888489,466.226257 367.127167,459.398529 362.904816,449.225433 
	C359.032745,455.273560 356.378845,460.902069 352.201904,465.445404 
	C342.497437,476.001038 337.222809,488.313660 335.728516,502.637482 
	C335.067352,508.975403 337.046265,513.722900 340.815155,518.107361 
	C342.742401,520.349426 345.280701,522.066284 348.163910,524.409546 
M329.518768,514.721436 
	C325.148712,505.615875 325.904633,496.534271 330.250641,487.776367 
	C332.256622,483.734100 331.085907,481.385315 327.931091,478.909058 
	C318.123260,471.210846 307.260620,465.547180 295.450836,461.664795 
	C293.766174,461.111023 291.939484,460.459595 289.503418,462.217987 
	C293.880707,468.683289 292.680573,476.336761 293.561554,483.690826 
	C294.664948,492.901398 297.759735,501.500397 302.748199,509.337158 
	C309.125946,519.356506 326.320862,527.468689 337.039215,525.575684 
	C334.606262,522.161682 331.476074,519.306274 329.518768,514.721436 
M429.877258,473.799652 
	C429.807861,469.823456 431.588989,466.208954 432.607239,462.106598 
	C419.911896,465.481049 408.763977,470.803223 398.897919,478.656158 
	C391.616333,484.451935 391.627167,484.549469 394.690491,493.113525 
	C396.789520,498.981628 398.385864,504.897064 396.795654,511.145386 
	C395.268799,517.144714 391.917450,522.021301 387.106812,526.059570 
	C401.438080,524.537231 414.024475,519.906921 421.542633,506.631653 
	C427.116516,496.789368 430.298828,486.191620 429.877258,473.799652 
M379.250793,539.389832 
	C373.535797,531.438599 362.231689,532.158752 353.033203,535.066833 
	C346.050201,537.274536 342.108948,542.910889 341.495758,549.978271 
	C340.914307,556.679810 347.077209,558.629333 351.275726,562.362854 
	C359.343903,569.537415 365.303345,566.140015 372.699524,561.591125 
	C381.467560,556.198486 384.337006,549.208130 379.250793,539.389832 
M369.021912,450.491272 
	C371.504852,454.314484 372.993073,458.893738 377.162659,461.602509 
	C380.143341,459.454285 381.252289,456.110626 383.541962,453.737213 
	C385.441559,451.768158 385.807648,449.547485 385.214386,446.838165 
	C384.263733,442.496490 382.723938,438.395386 379.600189,435.312561 
	C373.701630,429.491333 367.492767,423.985931 362.527649,415.934326 
	C357.233673,425.353333 349.204071,431.139801 343.375793,438.736450 
	C337.953156,445.804382 336.255157,451.857391 342.108948,457.963837 
	C345.308411,461.301453 346.555786,461.487305 349.351471,457.503845 
	C353.398132,451.737885 356.437500,445.460754 358.636261,438.766174 
	C359.169495,437.142731 359.064423,434.980072 362.117432,434.583069 
	C364.265747,439.592743 366.463654,444.718109 369.021912,450.491272 
M421.424103,529.922668 
	C419.451172,529.675049 417.483002,529.376587 415.504364,529.189575 
	C409.889984,528.658936 404.638855,530.371826 399.408051,531.998474 
	C394.013550,533.675964 388.265533,532.695435 382.851624,533.971252 
	C386.616455,543.284546 393.685638,547.780762 402.785767,549.854004 
	C407.059021,550.827515 411.336334,551.069397 415.656006,550.973633 
	C426.277222,550.738342 436.342316,546.240845 448.277557,547.747864 
	C441.307861,537.507812 432.371643,532.933594 421.424103,529.922668 
M316.830841,550.550171 
	C327.119385,548.413208 336.133820,544.467773 340.117767,533.817749 
	C334.733032,533.229431 328.951843,532.604431 323.433411,530.873047 
	C314.999817,528.226990 306.818420,528.449463 298.674744,531.889587 
	C290.426056,535.374146 283.281647,540.401428 275.873352,547.397949 
	C282.504883,547.837585 288.034119,547.315125 293.251892,548.942444 
	C300.704834,551.266846 308.293671,551.270874 316.830841,550.550171 
M321.047119,443.441193 
	C317.645172,441.522339 314.532379,438.944214 310.235260,438.495331 
	C309.926178,439.258820 309.470428,439.848907 309.487000,440.425446 
	C309.681946,447.217316 309.951691,454.006989 310.192200,460.797607 
	C310.259552,462.698822 311.400269,463.858032 312.957001,464.617737 
	C319.548462,467.834473 325.702545,471.730530 331.351288,476.405212 
	C333.368134,478.074280 334.878906,477.804901 336.187805,475.566528 
	C337.108185,473.992493 337.955536,472.314819 339.165009,470.982513 
	C342.373840,467.447693 341.552979,464.264526 338.985657,460.789703 
	C334.109955,454.190582 328.611633,448.283783 321.047119,443.441193 
M410.656555,440.688141 
	C404.874146,443.362091 399.855072,447.210083 394.980835,451.206360 
	C390.192963,455.131836 386.359650,459.930450 383.339478,465.366364 
	C380.674500,470.162933 384.684326,472.858429 386.964478,475.709320 
	C389.021240,478.280945 391.490784,476.183624 393.464417,474.626984 
	C398.311096,470.804291 403.518799,467.544128 409.050049,464.838654 
	C411.546906,463.617371 412.926453,462.086975 412.847504,459.122833 
	C412.706055,453.810852 412.901306,448.490631 412.855682,443.174744 
	C412.846252,442.075500 413.644073,440.233978 410.656555,440.688141 
M277.147125,497.348389 
	C283.274719,505.348572 290.818085,511.563171 300.146576,515.683777 
	C293.376221,505.473236 288.765045,494.583862 287.551788,482.392487 
	C287.394043,480.807678 286.276672,479.694824 284.983551,478.867706 
	C276.597107,473.503571 267.288147,471.479889 257.270081,471.301575 
	C264.934967,475.159515 268.519836,482.054779 271.884979,489.222565 
	C273.145508,491.907532 275.081329,494.275452 277.147125,497.348389 
M444.285583,477.787231 
	C441.083740,479.415955 436.919128,480.263733 436.372559,484.591309 
	C435.045654,495.097748 431.753296,504.833801 425.962952,513.836121 
	C435.976593,508.357758 444.112976,500.948181 449.657623,491.095459 
	C453.712067,483.890869 456.777374,476.079315 464.849579,471.931427 
	C457.587463,472.088684 451.222351,474.580841 444.285583,477.787231 
M295.150696,521.911987 
	C293.227112,520.399719 291.013428,520.004639 288.616150,520.018799 
	C281.293823,520.062195 274.135590,521.542175 266.909302,522.417175 
	C266.144440,522.509766 265.285706,522.834595 265.093292,524.187683 
	C269.885529,527.253174 275.313141,529.092529 280.782837,530.837952 
	C281.886444,531.190063 283.008392,531.696655 284.126251,530.977661 
	C288.571594,528.118713 293.846436,527.072998 298.954895,524.487366 
	C297.607300,523.561951 296.674408,522.921265 295.150696,521.911987 
M442.304413,520.184570 
	C436.149536,519.153870 431.057220,521.313416 426.055298,525.805298 
	C431.479523,526.830505 435.542786,531.551880 440.594177,530.862732 
	C446.805969,530.015381 452.737762,527.247742 458.867554,523.357239 
	C453.445984,520.177124 448.082581,521.393127 442.304413,520.184570 
z"/>
<path fill="#000000" opacity="1.000000" stroke="none" 
	d="
M280.885254,317.881836 
	C271.629425,324.683655 274.172974,336.718048 284.632446,339.074066 
	C285.536285,339.277649 286.342438,339.914856 287.060486,340.282318 
	C286.985657,341.376190 286.598419,341.939728 285.851990,341.948792 
	C278.406128,342.039337 269.628357,334.228210 268.861511,326.848724 
	C268.444763,322.838348 270.273499,319.775116 273.049744,317.136810 
	C281.250854,309.343170 291.667389,307.154419 302.328613,305.825684 
	C309.413635,304.942688 309.440247,305.156097 311.544830,298.780457 
	C311.856171,298.851501 312.429199,298.902100 312.439026,299.005981 
	C312.948456,304.396057 316.346466,304.918976 320.970612,304.938904 
	C329.382751,304.975128 337.480469,307.009583 344.894623,311.173889 
	C356.889404,317.911072 358.244476,330.415009 348.071320,339.650391 
	C340.905884,346.155273 332.036530,348.120300 322.839386,349.235748 
	C321.367035,349.414276 319.879608,349.468231 318.593170,349.565155 
	C317.691406,350.578644 318.129700,351.355988 318.590485,352.010040 
	C325.110016,361.264160 331.340332,370.751068 339.459320,378.750580 
	C341.974762,381.228973 344.877869,383.239746 348.280853,384.274231 
	C352.011780,385.408325 354.428284,383.690277 354.895477,379.799622 
	C355.505615,374.718994 353.955750,370.081268 350.583221,365.104309 
	C356.349457,367.020081 359.062469,373.176880 358.230469,379.868011 
	C357.579529,385.103119 353.837433,388.858002 348.773651,389.261047 
	C344.042664,389.637573 339.985657,387.907593 336.242493,385.167694 
	C327.919861,379.075653 322.691986,370.628021 318.129761,361.640259 
	C316.281067,357.998291 314.940491,354.049500 311.860596,350.378052 
	C307.244751,358.181122 303.116455,365.771729 297.145782,372.076813 
	C292.848633,376.614624 288.077606,380.432373 282.037323,382.362946 
	C274.889343,384.647583 267.816986,385.224396 261.866272,379.604889 
	C255.667435,373.751099 255.539001,366.185272 257.530365,358.697876 
	C259.589630,350.955078 264.391846,345.374390 272.840179,344.099152 
	C277.725586,343.361694 280.669678,345.455597 281.199524,349.644348 
	C273.507294,346.095612 268.461456,347.869904 264.297394,355.653809 
	C262.217407,359.541901 261.108551,363.686127 261.336792,368.133789 
	C261.864258,378.410797 269.183838,383.353394 278.946045,380.066376 
	C282.692902,378.804718 285.715790,376.409424 288.399231,373.695862 
	C295.131989,366.887634 299.995239,358.777374 304.368378,350.269073 
	C301.314117,347.314728 300.363678,349.718658 299.230011,351.795410 
	C294.259583,360.900177 288.817902,369.677551 280.547150,376.227509 
	C277.800415,378.402771 274.793274,380.481934 270.524323,378.537354 
	C285.291107,372.921906 291.368805,359.966217 298.289124,347.673706 
	C295.691498,344.609039 290.736053,342.944366 292.695953,338.252441 
	C294.690155,333.478485 299.194794,333.937042 303.668396,335.099213 
	C306.715424,327.596710 308.534546,320.051910 309.634033,312.311890 
	C310.010223,309.663879 309.178802,307.961853 306.139374,308.466339 
	C297.235443,309.944214 288.384430,311.597992 280.885254,317.881836 
M311.592987,332.990723 
	C312.904205,328.007263 314.148895,323.004974 315.554840,318.048370 
	C316.254578,315.581299 317.809723,313.714447 320.653625,314.586334 
	C323.364868,315.417633 322.499847,317.874054 322.124390,319.696259 
	C320.679688,326.708282 318.637421,333.555359 316.018127,340.230011 
	C315.386658,341.839172 314.116425,343.425598 315.155029,345.315460 
	C323.908539,346.875183 336.186707,343.907013 342.612762,338.715424 
	C349.729126,332.966125 350.320251,324.224609 343.683289,317.932739 
	C335.862488,310.518555 326.083405,308.286987 315.638489,308.191650 
	C313.680450,308.173767 312.430054,308.971283 312.389221,311.084625 
	C312.228943,319.376526 309.676056,327.101471 306.810211,334.754791 
	C306.069305,336.733459 306.282776,338.307465 308.685394,339.007629 
	C310.280273,337.555176 310.424805,335.430420 311.592987,332.990723 
M297.852905,341.317230 
	C301.828217,343.706879 301.367035,340.458801 302.106689,338.154053 
	C299.136261,337.039703 296.774323,336.219147 297.852905,341.317230 
z"/>
<path fill="#000000" opacity="1.000000" stroke="none" 
	d="
M409.923523,381.007019 
	C400.870056,386.459015 392.005035,391.431305 381.336731,391.255127 
	C373.730408,391.129547 367.978516,387.299774 366.175842,381.279907 
	C364.183319,374.625916 366.782074,367.844543 373.325317,363.619110 
	C381.952881,358.047821 391.948486,357.863251 401.703644,357.038696 
	C406.670380,356.618896 411.689850,356.780823 416.685730,356.765381 
	C419.327881,356.757202 421.201233,355.940887 421.577087,353.000702 
	C420.280670,351.735504 418.711212,352.338654 417.305206,352.312195 
	C399.258362,351.972656 385.761688,334.031586 390.382263,316.471771 
	C394.371735,301.310242 410.672821,296.691223 421.979034,307.545166 
	C423.196930,308.714355 424.270294,309.683838 426.174988,309.826019 
	C434.219147,310.426544 437.660126,313.594879 439.306854,321.460083 
	C440.376740,326.570068 440.437653,331.700073 439.759521,336.859711 
	C439.596497,338.099854 438.805756,339.383575 440.095215,340.847931 
	C443.870667,338.613037 445.230499,334.173401 449.072968,330.595764 
	C449.399536,335.615387 446.582703,338.015259 444.309998,340.541290 
	C440.811584,344.429596 435.899689,347.208862 434.848206,352.956482 
	C434.759644,353.440704 434.678345,353.926270 434.425262,355.375305 
	C440.227142,355.940216 445.921844,355.989990 451.574860,355.286011 
	C453.373749,355.061981 453.416260,352.739075 453.863098,351.157654 
	C456.677185,341.198303 460.230896,331.528687 465.127899,322.383759 
	C467.595703,317.775269 470.730591,313.707672 474.915009,310.536713 
	C477.510956,308.569519 480.269775,307.663635 484.710083,310.208038 
	C473.056580,312.369324 470.711365,321.447662 467.014679,329.155090 
	C463.284363,336.932739 461.000183,345.239960 459.441742,353.677246 
	C462.355530,355.332001 464.948456,352.618286 467.701263,354.036041 
	C467.111053,356.963165 464.554077,357.269592 462.468109,357.797638 
	C459.365326,358.583130 458.022552,360.325928 458.150269,363.485748 
	C458.311462,367.474274 457.956879,371.516663 458.475647,375.449982 
	C459.268036,381.457794 463.091736,383.335480 468.517975,380.646057 
	C470.429413,379.698700 472.112640,378.276642 473.858795,377.014191 
	C475.567017,375.779175 475.994965,373.220642 478.350342,372.534088 
	C480.163177,373.916779 479.128906,375.277710 478.254272,376.382904 
	C474.429108,381.216675 469.538116,384.689819 463.615082,386.300293 
	C458.255951,387.757538 453.159271,383.756195 452.144135,377.276886 
	C451.582703,373.693420 451.896698,369.975555 451.771393,366.319824 
	C451.704193,364.359161 452.317749,362.345459 451.326843,360.279785 
	C445.430237,360.279785 439.500824,360.279877 433.571442,360.279694 
	C431.404083,360.279633 430.405792,361.951813 429.309509,363.375336 
	C423.968658,370.310608 417.582733,376.086426 409.923523,381.007019 
M413.679565,305.647430 
	C403.136444,302.096527 393.919067,308.163055 393.251404,319.157898 
	C393.100403,321.644257 393.108002,324.157135 393.270905,326.642853 
	C394.137085,339.859650 406.645203,350.658081 419.812622,349.684113 
	C421.555878,349.555145 423.276062,349.407806 423.973297,347.573395 
	C427.804321,337.493988 428.386627,327.404083 424.008118,316.205292 
	C418.896057,323.967316 419.989197,332.171143 418.562592,340.085480 
	C417.520111,339.437500 417.005493,339.282959 416.778961,338.938751 
	C416.424530,338.400330 416.102539,337.747711 416.047852,337.119049 
	C415.468231,330.453644 415.195740,323.815125 418.116119,317.510010 
	C421.397156,310.426270 421.328308,310.247223 413.679565,305.647430 
M390.687836,386.225922 
	C406.147034,383.199860 415.993134,372.802582 425.185516,360.607300 
	C422.128357,359.682465 420.721680,360.858826 419.457306,362.586212 
	C417.983704,364.599457 416.545258,366.668640 414.841431,368.477966 
	C406.240417,377.611450 396.326813,384.224457 383.191254,384.262756 
	C381.573853,384.267487 379.452698,384.869812 378.649750,381.743256 
	C395.780914,382.598328 407.650269,374.328583 417.439575,360.810638 
	C411.323486,359.542419 406.238251,360.729126 401.193909,361.412109 
	C392.144562,362.637451 382.947571,363.484528 374.641174,367.786285 
	C371.082458,369.629364 368.213684,372.331055 368.476471,376.699982 
	C368.753754,381.309631 372.122986,383.638733 376.071411,385.027649 
	C380.522064,386.593231 385.149017,387.092834 390.687836,386.225922 
M434.200562,324.193054 
	C433.434448,319.945312 433.531799,315.181061 426.742676,313.000092 
	C431.374268,325.094910 431.671875,336.392273 428.510681,347.928192 
	C433.836945,341.188080 434.275085,333.153320 434.200562,324.193054 
M428.846466,353.128448 
	C428.923187,352.436981 429.747528,351.233032 428.559296,351.212921 
	C426.131256,351.171844 424.733429,352.549957 424.827515,355.305603 
	C426.774109,356.212219 427.900604,355.426208 428.846466,353.128448 
z"/>
</svg>